#!OML:ASF X:\für Bonn\!DataBase\2005_08_12_Daniel\c3d\Daniel.ASF
:FULLY-SPECIFIED
:DEGREES
1
root 0.0116836 16.9834 1.04878 -383.737 -88.0523 374.392
lowerback 15.5237 0.927522 -2.65981
upperback 1.55549 0.301625 -4.0626
thorax -7.05236 0.0952933 -2.88581
lowerneck 2.47719 -1.01413 -3.00438
upperneck 4.47048 -1.4636 0.421963
head 0.985014 -0.795785 0.622686
rclavicle -5.44173e-015 1.74931e-014
rhumerus -222.098 -207.768 66.7432
rradius 60.155
rwrist 9.25044
rhand -22.9547 21.771
rfingers 7.12502
rthumb 3.4868 -8.18021
lclavicle -5.44173e-015 1.74931e-014
lhumerus -229.351 202.824 -71.665
lradius 78.285
lwrist -8.36307
lhand 7.87829 360.976
lfingers 7.12502
lthumb 33.1113 27.9527
rfemur 7.43055 3.51678 11.4826
rtibia 25.387
rfoot -26.4018 -13.3563
rtoes -10.3852
lfemur -11.6558 -30.2797 -18.1883
ltibia 38.5165
lfoot -27.4663 4.81673
ltoes 4.6376
2
root 0.0399707 16.9865 0.989551 -382.546 -88.0079 373.212
lowerback 15.6381 0.977884 -2.49124
upperback 1.59792 0.394493 -4.03937
thorax -7.0659 0.135717 -2.97824
lowerneck 2.39294 -1.09233 -3.05493
upperneck 4.41509 -1.56845 0.579354
head 0.986124 -0.845845 0.679499
rclavicle 1.26228e-014 -1.11319e-014
rhumerus -221.922 -208.138 66.5438
rradius 60.1271
rwrist 9.27546
rhand -23.0068 21.6396
rfingers 7.12502
rthumb 3.4365 -8.31242
lclavicle 1.26228e-014 -1.11319e-014
lhumerus -229.205 202.525 -71.868
lradius 78.5267
lwrist -8.52516
lhand 7.90368 361.099
lfingers 7.12502
lthumb 33.1354 28.0708
rfemur 7.60516 4.14624 12.0456
rtibia 25.0192
rfoot -26.9783 -14.0536
rtoes -10.2414
lfemur -11.8039 -30.0081 -17.8095
ltibia 38.3431
lfoot -26.9064 4.70245
ltoes 4.58175
3
root 0.0704257 16.9895 0.929519 -380.027 -87.9635 370.719
lowerback 15.7708 1.00956 -2.27623
upperback 1.63665 0.470632 -4.01302
thorax -7.09313 0.166862 -3.09099
lowerneck 2.2637 -1.17019 -3.02898
upperneck 4.37063 -1.66834 0.681388
head 0.996789 -0.892723 0.706069
rclavicle -6.4605e-015 5.40694e-014
rhumerus -221.712 -208.504 66.3381
rradius 60.0609
rwrist 9.35186
rhand -22.9741 21.4707
rfingers 7.12502
rthumb 3.46808 -8.48085
lclavicle -6.4605e-015 5.40694e-014
lhumerus -229.099 202.188 -72.1006
lradius 78.7873
lwrist -8.74926
lhand 7.87553 361.171
lfingers 7.12502
lthumb 33.1087 28.1484
rfemur 7.74538 4.8639 12.6958
rtibia 24.688
rfoot -27.635 -14.8005
rtoes -10.0377
lfemur -11.9909 -29.7553 -17.3535
ltibia 38.161
lfoot -26.3505 4.55745
ltoes 4.53534
4
root 0.103056 16.9932 0.869613 -378.437 -87.8896 369.15
lowerback 15.9222 1.04002 -2.11167
upperback 1.69388 0.537562 -3.96927
thorax -7.11131 0.19504 -3.15459
lowerneck 2.0744 -1.23881 -3.0956
upperneck 4.33499 -1.756 0.822631
head 1.0218 -0.934339 0.760135
rclavicle 8.92046e-015 -1.59028e-014
rhumerus -221.532 -208.898 66.189
rradius 60.0338
rwrist 9.43025
rhand -22.8912 21.3341
rfingers 7.12502
rthumb 3.54818 -8.6161
lclavicle 8.92046e-015 -1.59028e-014
lhumerus -228.961 201.829 -72.3018
lradius 79.0603
lwrist -8.96268
lhand 7.80828 361.274
lfingers 7.12502
lthumb 33.0447 28.2646
rfemur 7.8623 5.60797 13.3199
rtibia 24.4115
rfoot -28.308 -15.6009
rtoes -9.9382
lfemur -12.1677 -29.5304 -16.9449
ltibia 37.9593
lfoot -25.8 4.43526
ltoes 4.51219
5
root 0.138458 16.9967 0.809982 -376.047 -87.8009 366.778
lowerback 16.1306 1.05688 -1.9087
upperback 1.72568 0.590759 -3.92506
thorax -7.18808 0.215403 -3.23916
lowerneck 1.92408 -1.31062 -3.06601
upperneck 4.30684 -1.84634 0.886976
head 1.04067 -0.976903 0.774118
rclavicle 1.83379e-014 -4.77083e-015
rhumerus -221.414 -209.261 66.0117
rradius 60.0277
rwrist 9.50551
rhand -22.7671 21.1926
rfingers 7.12502
rthumb 3.66806 -8.75559
lclavicle 1.83379e-014 -4.77083e-015
lhumerus -228.888 201.493 -72.5021
lradius 79.34
lwrist -9.07654
lhand 7.63507 361.416
lfingers 7.12502
lthumb 32.88 28.4419
rfemur 7.96029 6.42904 14.0044
rtibia 24.1833
rfoot -29.0794 -16.4213
rtoes -9.76144
lfemur -12.3647 -29.2732 -16.4896
ltibia 37.7445
lfoot -25.2124 4.28295
ltoes 4.35993
6
root 0.175511 17.0024 0.751147 -374.281 -87.6951 365.042
lowerback 16.3483 1.06299 -1.73119
upperback 1.76717 0.62667 -3.8702
thorax -7.26031 0.228072 -3.29419
lowerneck 1.71089 -1.37519 -3.11936
upperneck 4.28976 -1.92643 0.981951
head 1.07501 -1.01507 0.811303
rclavicle -4.72114e-015 1.27222e-014
rhumerus -221.315 -209.626 65.8555
rradius 60.0292
rwrist 9.6296
rhand -22.6616 21.0534
rfingers 7.12502
rthumb 3.76987 -8.89301
lclavicle -4.72114e-015 1.27222e-014
lhumerus -228.772 201.13 -72.7177
lradius 79.613
lwrist -9.17764
lhand 7.44069 361.57
lfingers 7.12502
lthumb 32.6951 28.6338
rfemur 8.02168 7.31059 14.6809
rtibia 24.011
rfoot -29.8853 -17.2918
rtoes -9.66154
lfemur -12.5773 -29.0006 -16.0583
ltibia 37.512
lfoot -24.6163 4.19884
ltoes 4.09171
7
root 0.216595 17.0073 0.693828 -372.267 -87.5667 363.076
lowerback 16.5863 1.0533 -1.5229
upperback 1.79916 0.647572 -3.81319
thorax -7.35406 0.232485 -3.36216
lowerneck 1.46691 -1.43106 -3.17433
upperneck 4.30397 -1.99438 1.087
head 1.12452 -1.04726 0.851742
rclavicle -5.86415e-015 1.43125e-014
rhumerus -221.241 -209.967 65.7168
rradius 60.0339
rwrist 9.74904
rhand -22.5157 20.9675
rfingers 7.12502
rthumb 3.91077 -8.97635
lclavicle -5.86415e-015 1.43125e-014
lhumerus -228.645 200.78 -72.9212
lradius 79.857
lwrist -9.22429
lhand 7.12912 361.756
lfingers 7.12502
lthumb 32.3986 28.8813
rfemur 8.02385 8.18704 15.3606
rtibia 23.8878
rfoot -30.7174 -18.1887
rtoes -9.61693
lfemur -12.8339 -28.7438 -15.5922
ltibia 37.2729
lfoot -24.0309 4.03654
ltoes 3.92691
